<svg preserveAspectRatio="none" overflow="visible" style="display: block;" width="31" height="31" viewBox="0 0 31 31" fill="none" xmlns="http://www.w3.org/2000/svg">
<g id="SVG">
<path id="Vector" d="M27.1249 28.4167V9.66802C27.1249 8.25039 27.1249 7.54157 26.7174 6.94339C26.3098 6.34521 25.5589 5.95202 24.0574 5.16567L22.1467 4.16514C19.7894 2.93072 18.6108 2.31352 17.7012 2.69589C16.7916 3.07825 16.7916 4.19095 16.7916 6.41632V11.625" stroke="#192424" stroke-width="1.45312" stroke-linejoin="round"/>
<path id="Vector_2" d="M28.4167 28.4166H2.58341" stroke="#192424" stroke-width="1.45312" stroke-linecap="round" stroke-linejoin="round"/>
<path id="Vector_3" d="M27.1249 10.3334H24.5416M27.1249 14.2084H24.5416M27.1249 18.0834H24.5416" stroke="#192424" stroke-width="1.45312" stroke-linecap="round" stroke-linejoin="round"/>
<path id="Vector_4" d="M10.3334 16.7916C10.3334 14.3561 10.3334 13.1383 11.0901 12.3817C11.8467 11.625 13.0645 11.625 15.5001 11.625C17.9356 11.625 19.1534 11.625 19.91 12.3817C20.6667 13.1383 20.6667 14.3561 20.6667 16.7916V28.4166H10.3334V16.7916Z" stroke="#192424" stroke-width="1.45312" stroke-linejoin="round"/>
<path id="Vector_5" d="M14.8541 16.7916H16.1458M14.8541 20.6666H16.1458" stroke="#192424" stroke-width="1.45312" stroke-linecap="round"/>
<path id="Vector_6" d="M4.52091 20.6666C5.59097 20.6666 6.45841 19.51 6.45841 18.0834C6.45841 16.6566 5.59097 15.5 4.52091 15.5C3.45086 15.5 2.58341 16.6566 2.58341 18.0834C2.58341 19.51 3.45086 20.6666 4.52091 20.6666Z" stroke="#192424" stroke-width="1.45312"/>
<path id="Vector_7" d="M4.52091 20.6666V28.4166" stroke="#192424" stroke-width="1.45312" stroke-linecap="round"/>
</g>
</svg>
