<svg preserveAspectRatio="none" overflow="visible" style="display: block;" width="32" height="32" viewBox="0 0 32 32" fill="none" xmlns="http://www.w3.org/2000/svg">
<g id="SVG">
<path id="Vector" d="M8.80005 15.8973C15.5635 3.29159 23.9854 3.14623 27.3509 4.64927C28.8539 8.01474 28.7084 16.4365 16.1028 23.2C15.972 22.4485 15.2451 20.4799 13.3826 18.6175C11.5202 16.7551 9.55157 16.028 8.80005 15.8973Z" stroke="#192424" stroke-width="1.5" stroke-linecap="round" stroke-linejoin="round"/>
<path id="Vector_2" d="M17.8 22.6C20.2514 23.8 20.5131 25.9517 20.8527 28C20.8527 28 25.9868 24.2047 22.7027 19" stroke="#192424" stroke-width="1.5" stroke-linecap="round" stroke-linejoin="round"/>
<path id="Vector_3" d="M9.39995 14.3025C8.19995 11.8512 6.0482 11.5895 4 11.2499C4 11.2499 7.79533 6.11574 13 9.39988" stroke="#192424" stroke-width="1.5" stroke-linecap="round" stroke-linejoin="round"/>
<path id="Vector_4" d="M8.02408 19.882C7.34164 20.5644 6.18148 22.5435 7.00042 25.0004C9.45722 25.8194 11.4363 24.6591 12.1188 23.9767" stroke="#192424" stroke-width="1.5" stroke-linecap="round" stroke-linejoin="round"/>
<path id="Vector_5" d="M23.0678 11.2669C23.0678 9.97826 22.0231 8.93359 20.7345 8.93359C19.4458 8.93359 18.4011 9.97826 18.4011 11.2669C18.4011 12.5556 19.4458 13.6003 20.7345 13.6003C22.0231 13.6003 23.0678 12.5556 23.0678 11.2669Z" stroke="#192424" stroke-width="1.5"/>
</g>
</svg>
