<svg fill="none" viewBox="210 238 160 80" xmlns="http://www.w3.org/2000/svg">
  <g><g transform="translate(234.67,296.063)"><animateTransform repeatCount="indefinite" type="translate" attributeName="transform" dur="0.8s" begin="0s" calcMode="spline" values="234.67 296.063; 234.67 257.063; 234.67 296.063; 234.67 296.063" keyTimes="0; 0.208333; 0.416666; 1" keySplines="0.167 0.167 0.667 1; 0.333 0 0.833 0.833; 0 0 1 1" fill="freeze" /><g transform="scale(0.75,0.75) translate(216,5.25)"><g transform="matrix(1,0,0,1,-216.145,-5.272)"><ellipse ry="19.11" rx="19.11" cy="0" cx="0" fill="#128ec2" /></g></g></g></g>
  <g><g transform="translate(271.795,296.063)"><animateTransform repeatCount="indefinite" type="translate" attributeName="transform" dur="0.8s" begin="0s" calcMode="spline" values="271.795 296.063; 271.795 296.063; 271.795 257.063; 271.795 296.063; 271.795 296.063" keyTimes="0; 0.208334; 0.416667; 0.625; 1" keySplines="0 0 1 1; 0.167 0.167 0.667 1; 0.333 0 0.833 0.833; 0 0 1 1" fill="freeze" /><g transform="scale(0.75,0.75) translate(216,5.25)"><g transform="matrix(1,0,0,1,-216.145,-5.272)"><ellipse ry="19.11" rx="19.11" cy="0" cx="0" fill="#76d6e8" /></g></g></g></g>
  <g><g transform="translate(308.92,296.063)"><animateTransform repeatCount="indefinite" type="translate" attributeName="transform" dur="0.8s" begin="0s" calcMode="spline" values="308.92 296.063; 308.92 296.063; 308.92 257.063; 308.92 296.063; 308.92 296.063" keyTimes="0; 0.416666; 0.624999; 0.833332; 1" keySplines="0 0 1 1; 0.167 0.167 0.667 1; 0.333 0 0.833 0.833; 0 0 1 1" fill="freeze" /><g transform="scale(0.75,0.75) translate(216,5.25)"><g transform="matrix(1,0,0,1,-216.145,-5.272)"><ellipse ry="19.11" rx="19.11" cy="0" cx="0" fill="#a7e2ed" /></g></g></g></g>
  <g><g transform="translate(346.795,296.063)"><animateTransform repeatCount="indefinite" type="translate" attributeName="transform" dur="0.8s" begin="0s" calcMode="spline" values="346.795 296.063; 346.795 296.063; 346.795 257.063; 346.795 296.063" keyTimes="0; 0.625; 0.833333; 1" keySplines="0 0 1 1; 0.167 0.167 0.667 1; 0.333 0 0.833 0.833" fill="freeze" /><g transform="scale(0.75,0.75) translate(216,5.25)"><g transform="matrix(1,0,0,1,-216.145,-5.272)"><ellipse ry="19.11" rx="19.11" cy="0" cx="0" fill="#50c1d6" /></g></g></g></g>
</svg>
